<svg xmlns="http://www.w3.org/2000/svg" width="49.301" height="50.439" viewBox="0 0 49.301 50.439"><defs><style>.a{fill:#4398d1;}.b{fill:#63c1ff;}.c{fill:#dfdfdf;}.d{fill:#bebebe;}.e{fill:#5fb9f5;}.f{fill:#1976d2;}</style></defs><g transform="translate(-3.333 -2)"><path class="a" d="M36.259,7.13h-1.71a3.42,3.42,0,1,0-6.839,0H26a5.13,5.13,0,0,1,10.259,0Z" transform="translate(-3.289)"/><path class="b" d="M45.235,34.46,43.454,19H14.387l-1.77,15.369-1.8,14.788a5.129,5.129,0,0,0,5.092,5.75H41.317a5.129,5.129,0,0,0,5.113-5.539Z" transform="translate(-1.08 -2.466)"/><path class="c" d="M37,8h3.42V18.259H37Z" transform="translate(-4.884 -0.87)"/><path class="a" d="M21.844,25.1V21.679a.855.855,0,0,1-.855-.855v-1.71a.855.855,0,0,1,.855-.855V8H20.773a3.419,3.419,0,0,0-3.191,2.192L15.5,15.605a6.985,6.985,0,0,0,6.344,9.49Z" transform="translate(-1.698 -0.87)"/><path class="a" d="M27.855,19.114v1.71a.855.855,0,0,1-.855.855V25.1h8.549v-3.42a.855.855,0,0,1-.855-.855v-1.71a.855.855,0,0,1,.855-.855V8H27V18.259A.855.855,0,0,1,27.855,19.114Z" transform="translate(-3.434 -0.87)"/><path class="c" d="M23,8h3.42V18.259H23Z" transform="translate(-2.853 -0.87)"/><path class="a" d="M41.855,19.114v1.71a.855.855,0,0,1-.855.855V25.1a6.985,6.985,0,0,0,6.344-9.49l-2.082-5.413A3.419,3.419,0,0,0,42.071,8H41V18.259A.855.855,0,0,1,41.855,19.114Z" transform="translate(-5.465 -0.87)"/><path class="d" d="M27.13,22.565v-1.71A.855.855,0,0,0,26.275,20h-3.42a.855.855,0,0,0-.855.855v1.71a.855.855,0,0,0,.855.855h3.42A.855.855,0,0,0,27.13,22.565Z" transform="translate(-2.708 -2.611)"/><path class="d" d="M41.13,22.565v-1.71A.855.855,0,0,0,40.275,20h-3.42a.855.855,0,0,0-.855.855v1.71a.855.855,0,0,0,.855.855h3.42A.855.855,0,0,0,41.13,22.565Z" transform="translate(-4.739 -2.611)"/><path class="a" d="M35.824,39H25.565A2.565,2.565,0,0,0,23,41.565V51.824a2.565,2.565,0,0,0,2.565,2.565H35.824a2.565,2.565,0,0,0,2.565-2.565V41.565A2.565,2.565,0,0,0,35.824,39Z" transform="translate(-2.853 -5.368)"/><path class="e" d="M43.913,21.329a6.944,6.944,0,0,1-6.679,5.7v1.712l-1.71,1.71-1.71-1.71v-1.71H25.266v1.71l-1.71,1.71-1.71-1.71V27.03a6.944,6.944,0,0,1-6.679-5.7,6.952,6.952,0,0,0,4.969,8v2.83l3.42,3.42,3.42-3.42V29.6h5.13v2.565l3.42,3.42,3.42-3.42v-2.83a6.952,6.952,0,0,0,4.969-8Z" transform="translate(-1.7 -2.804)"/><path class="c" d="M23,24v7.694l1.71,1.71,1.71-1.71V24Z" transform="translate(-2.853 -3.192)"/><path class="c" d="M37,24v7.694l1.71,1.71,1.71-1.71V24Z" transform="translate(-4.884 -3.192)"/><path class="e" d="M46.289,52.47a5.13,5.13,0,0,1-4.972,3.873H15.905a5.128,5.128,0,0,1-4.924-3.705l-.168,1.375a5.129,5.129,0,0,0,5.092,5.75H41.317a5.129,5.129,0,0,0,5.113-5.539Z" transform="translate(-1.08 -7.322)"/><path class="f" d="M4.854,52.1l.61.457a5.428,5.428,0,0,0,4.152,1.012,3.869,3.869,0,0,0,.557-.14,3.8,3.8,0,0,0,2.6-3.191L14.162,37.71l-2.625-.875L9.033,36,3.689,47.451A3.8,3.8,0,0,0,4.854,52.1Z" transform="translate(0 -4.933)"/><path class="f" d="M49.725,50.24a3.8,3.8,0,0,0,3.155,3.332,5.434,5.434,0,0,0,4.152-1.012l.61-.457a3.8,3.8,0,0,0,1.164-4.651L53.462,36l-2.778.926-2.352.784Z" transform="translate(-6.528 -4.933)"/><path class="c" d="M35.4,44.71H26.855a.855.855,0,1,1,0-1.71H35.4a.855.855,0,1,1,0,1.71Z" transform="translate(-3.289 -5.948)"/></g></svg>