<svg xmlns="http://www.w3.org/2000/svg" width="69.868" height="49.447" viewBox="0 0 69.868 49.447"><defs><style>.a{fill:#93b3c2;}.b{fill:#cfd8dc;}.c{fill:#607d8b;}.d{fill:#2196f3;}</style></defs><g transform="translate(0 -74.916)"><path class="a" d="M395.108,310.518c-.179-.138-.145-.169-.352-.26a5.425,5.425,0,0,0-2.44-.561,22.8,22.8,0,0,0-11.518,3.992,1.454,1.454,0,0,0-.27,2.268l.582.582c1.777,1.809,7.851,7.7,11.212,7.7,4.144,0,5.816-5.132,5.816-7.269A7.657,7.657,0,0,0,395.108,310.518Z" transform="translate(-328.294 -202.779)"/><path class="b" d="M122.234,255.079,108.8,245.949a1.454,1.454,0,0,0-.814-.253c-8.883,0-30.753,5.406-39.651,9.8a13.062,13.062,0,0,0-3.542,2.259,1.454,1.454,0,0,0-.076,1.974c.425.494,10.5,12.14,21.343,12.14,7.171,0,13.135-4.033,18.9-7.932,1.564-1.055,3.108-2.1,4.652-3.042a19.166,19.166,0,0,1,10-3.565c.4-.008,1.617-.024,2.285,0a1.278,1.278,0,0,0,1.27-.913C123.268,255.922,122.792,255.485,122.234,255.079Z" transform="translate(-55.595 -147.503)"/><path class="c" d="M22.372,83.383a1.454,1.454,0,0,0-1.7-1.073A28.711,28.711,0,0,0,6.294,89,22.233,22.233,0,0,0,.051,106.008a52.125,52.125,0,0,0,1.5,12.006,1.454,1.454,0,0,0,1.4,1.079h7.269a1.453,1.453,0,0,0,1.029-.425A10.228,10.228,0,0,1,14,116.976a1.454,1.454,0,0,0,.744-1.791C11.118,104.8,10.67,96.828,13.4,91.5a12.769,12.769,0,0,1,7.97-6.374A1.454,1.454,0,0,0,22.372,83.383Z" transform="translate(0 -6.361)"/><path class="d" d="M109.161,99.223l-4.713-15.365a10.247,10.247,0,0,0-5.912-6.441,38.614,38.614,0,0,0-22.608-1.454,15.614,15.614,0,0,0-9.738,7.848c-3.111,6.063-2.716,14.8,1.184,25.972a1.447,1.447,0,0,0,2.015.829c8.465-4.181,29.985-9.511,38.383-9.511a1.454,1.454,0,0,0,1.39-1.879Z" transform="translate(-55.379 0)"/></g></svg>