<svg xmlns="http://www.w3.org/2000/svg" width="49.188" height="49.188" viewBox="0 0 49.188 49.188"><defs><style>.a{fill:#1976d2;}.b{fill:#ebf0f3;}.c{fill:#64798a;}.d{fill:#ce412d;}.e{fill:#2f4859;}</style></defs><g transform="translate(0)"><path class="a" d="M24.594,0A24.594,24.594,0,1,1,0,24.594,24.594,24.594,0,0,1,24.594,0Z" transform="translate(0 0)"/><circle class="b" cx="21.092" cy="21.092" r="21.092" transform="translate(3.502 3.502)"/><g transform="translate(3.499 3.499)"><path class="c" d="M227.861,33.33v2.7a.834.834,0,0,1-1.669,0v-2.7c.277-.012.554-.018.837-.018S227.584,33.318,227.861,33.33Z" transform="translate(-205.932 -33.312)"/><path class="c" d="M87.815,86.65l1.912,1.912a.835.835,0,0,1-1.18,1.18L86.635,87.83c.187-.2.379-.4.579-.605S87.61,86.837,87.815,86.65Z" transform="translate(-81.034 -81.047)"/><path class="c" d="M33.331,226.214h2.7a.834.834,0,0,1,0,1.669h-2.7c-.012-.277-.018-.554-.018-.837S33.319,226.491,33.331,226.214Z" transform="translate(-33.313 -205.952)"/><path class="c" d="M86.651,352.05l1.912-1.912a.834.834,0,0,1,1.18,1.18l-1.912,1.912c-.2-.187-.4-.379-.605-.579S86.838,352.255,86.651,352.05Z" transform="translate(-81.048 -316.64)"/><path class="c" d="M226.215,404.687v-2.7a.834.834,0,0,1,1.669,0v2.7c-.277.012-.554.018-.837.018S226.492,404.7,226.215,404.687Z" transform="translate(-205.953 -362.515)"/><path class="c" d="M352.051,353.232l-1.912-1.912a.835.835,0,0,1,1.18-1.18l1.912,1.912c-.187.2-.379.4-.579.605S352.256,353.045,352.051,353.232Z" transform="translate(-316.641 -316.644)"/><path class="c" d="M404.688,227.86h-2.7a.834.834,0,0,1,0-1.669h2.7c.012.277.018.554.018.837S404.7,227.583,404.688,227.86Z" transform="translate(-362.516 -205.931)"/><path class="c" d="M353.233,87.813l-1.912,1.912a.834.834,0,0,1-1.18-1.18l1.912-1.912c.2.187.4.379.605.579S353.046,87.609,353.233,87.813Z" transform="translate(-316.645 -81.032)"/></g><path class="d" d="M231.308,126.872h-8.021a1.232,1.232,0,0,1-1.232-1.232v-11.5a1.232,1.232,0,1,1,2.463,0v10.273h6.789a1.232,1.232,0,0,1,0,2.463Z" transform="translate(-198.732 -101.045)"/><circle class="e" cx="2.874" cy="2.874" r="2.874" transform="translate(21.72 21.72)"/></g></svg>