<svg xmlns="http://www.w3.org/2000/svg" width="52.784" height="54.93" viewBox="0 0 52.784 54.93"><defs><style>.a{fill:#fdd7ad;}.b{fill:#14a1ff;}.c{fill:#63c1ff;}.d{fill:#1976d2;}.e{fill:#fff;}</style></defs><g transform="translate(-0.788)"><g transform="translate(0.788 0)"><path class="a" d="M33.725,57.525H21.366a1.894,1.894,0,0,1-1.7-1.073L19.2,55.5,25.476,51.3l7.172-2.273,2.783,5.777a1.894,1.894,0,0,1-1.707,2.716Z" transform="translate(-1.762 -2.596)"/><path class="a" d="M55.08,35.078,47.208,42.95a1.894,1.894,0,0,1-2.678,0L39.76,38.18l4.425-6.317L50.31,27.63,55.08,32.4A1.894,1.894,0,0,1,55.08,35.078Z" transform="translate(-2.851 -1.463)"/><path class="b" d="M46.085,23.374l-4.3,6.2-6.266,4.372a20.511,20.511,0,0,1-6.459-2.14l-.009-11.441a2.451,2.451,0,0,0-.227-1.023,2.356,2.356,0,0,0-4.48,1.013l.009,9.707L16.527,13.922a2.34,2.34,0,0,0-1.184-1.136l-2.652-2.661A2.354,2.354,0,0,1,16.016,6.79L13.25,4.025a2.347,2.347,0,0,1-.3-2.964,2.246,2.246,0,0,1,.3-.369,2.344,2.344,0,0,1,3.324,0l3.334,3.334V4.016a2.356,2.356,0,0,1-.3-2.955V1.051a3.588,3.588,0,0,1,.3-.36,2.355,2.355,0,0,1,3.334,0L35.961,13.335l-3.22-9.158a2.351,2.351,0,0,1,3.883-2.434,2.3,2.3,0,0,1,.559.881l5.038,14.348a18.238,18.238,0,0,0,3.864,6.4Z" transform="translate(-1.381 0)"/><path class="c" d="M29.988,43.463l-6.234,4.176-7.224,2.3a20.841,20.841,0,0,1-8.95-9.348L1.055,27.032a2.436,2.436,0,0,1,.89-3.182,2.349,2.349,0,0,1,3.286,1.013L2.854,19.919a2.353,2.353,0,0,1,.71-2.9,2.144,2.144,0,0,1,.4-.246,2.368,2.368,0,0,1,3.144,1.1L6.112,15.8l-.028-.047-.729-1.525v-.009a2.335,2.335,0,0,1,.758-2.784A2.027,2.027,0,0,1,6.5,11.2a2.35,2.35,0,0,1,3.144,1.1l2.046,4.243a2.343,2.343,0,0,1,.71-2.907,2.027,2.027,0,0,1,.388-.237,2.381,2.381,0,0,1,1.8-.095.819.819,0,0,1,.161.066A2.34,2.34,0,0,1,15.933,14.5L23.756,30.64l-.009-9.707a2.356,2.356,0,0,1,4.48-1.013,2.451,2.451,0,0,1,.227,1.023l.009,11.441v3.76a18.339,18.339,0,0,0,1.525,7.321Z" transform="translate(-0.788 -0.58)"/><g transform="translate(1.836 10.853)"><path class="d" d="M18.187,26.793a.859.859,0,0,1-.407.095.947.947,0,0,1-.852-.54l-4.641-9.66A2.343,2.343,0,0,1,13,13.78l5.635,11.744a.947.947,0,0,1-.445,1.269Z" transform="translate(-3.22 -11.583)"/><path class="d" d="M13.6,28.706a.924.924,0,0,1-.417.095.947.947,0,0,1-.852-.54L7.352,17.9l-.994-2.074-.028-.047L5.6,14.254v-.009a2.335,2.335,0,0,1,.758-2.784l7.681,15.977a.956.956,0,0,1-.436,1.269Z" transform="translate(-2.869 -11.46)"/><path class="d" d="M9.217,31.064a.924.924,0,0,1-.417.095.947.947,0,0,1-.852-.54L5.334,25.2,2.957,20.258a2.353,2.353,0,0,1,.71-2.9L9.653,29.795a.956.956,0,0,1-.436,1.269Z" transform="translate(-2.726 -11.772)"/></g><path class="e" d="M17.007,47.932a.947.947,0,0,1-.546-.174,18.015,18.015,0,0,1-5.807-6.883.947.947,0,0,1,1.7-.822,15.885,15.885,0,0,0,5.193,6.156A.947.947,0,0,1,17,47.929Z" transform="translate(-1.306 -2.094)"/><path class="d" d="M28.655,11.093a.93.93,0,0,1-.672.275.909.909,0,0,1-.663-.275L20.312,4.084V4.075a2.356,2.356,0,0,1-.3-2.955l8.647,8.637A.947.947,0,0,1,28.655,11.093Z" transform="translate(-1.785 -0.059)"/><path class="d" d="M24.958,14.417a.947.947,0,0,1-1.335,0L16.047,6.85,13.281,4.084a2.347,2.347,0,0,1-.3-2.964l11.98,11.961A.947.947,0,0,1,24.958,14.417Z" transform="translate(-1.412 -0.059)"/><path class="d" d="M33.778,46.941a1.972,1.972,0,0,1-1.108,1.78l-.2.095L19.023,55.284l-.35.17a1.965,1.965,0,0,1-1.7-3.542l.36-.17,13.458-6.478.18-.085a1.967,1.967,0,0,1,2.623.919A1.917,1.917,0,0,1,33.778,46.941Z" transform="translate(-1.585 -2.381)"/><path class="d" d="M50.846,25.891a1.942,1.942,0,0,1-.578,1.392l-.161.152-10.55,10.55-.275.275a1.962,1.962,0,1,1-2.775-2.775L47.484,24.508a1.972,1.972,0,0,1,2.784,0A1.936,1.936,0,0,1,50.846,25.891Z" transform="translate(-2.648 -1.267)"/></g></g></svg>