<svg xmlns="http://www.w3.org/2000/svg" width="20.068" height="20.068" viewBox="0 0 20.068 20.068"><defs><style>.a{fill:#fff;opacity:0.51;}</style></defs><path class="a" d="M10.034,0C7.308,0,6.968.012,5.9.06A7.406,7.406,0,0,0,3.462.527,4.91,4.91,0,0,0,1.684,1.684,4.905,4.905,0,0,0,.527,3.462,7.391,7.391,0,0,0,.06,5.9C.01,6.968,0,7.308,0,10.034S.012,13.1.06,14.171a7.409,7.409,0,0,0,.467,2.435,4.915,4.915,0,0,0,1.157,1.778,4.905,4.905,0,0,0,1.778,1.157,7.415,7.415,0,0,0,2.435.467c1.071.05,1.411.06,4.137.06s3.066-.012,4.137-.06a7.423,7.423,0,0,0,2.435-.467,5.128,5.128,0,0,0,2.935-2.935,7.409,7.409,0,0,0,.467-2.435c.05-1.07.06-1.41.06-4.137s-.012-3.066-.06-4.137a7.417,7.417,0,0,0-.467-2.435,4.925,4.925,0,0,0-1.157-1.778A4.9,4.9,0,0,0,16.606.527,7.38,7.38,0,0,0,14.171.06C13.1.01,12.76,0,10.034,0Zm0,1.806c2.678,0,3,.013,4.055.059a5.532,5.532,0,0,1,1.862.347,3.3,3.3,0,0,1,1.9,1.9A5.533,5.533,0,0,1,18.2,5.977c.048,1.059.059,1.376.059,4.055s-.012,3-.062,4.055a5.643,5.643,0,0,1-.352,1.862,3.179,3.179,0,0,1-.752,1.156,3.135,3.135,0,0,1-1.154.749,5.574,5.574,0,0,1-1.869.345c-1.065.048-1.379.059-4.063.059s-3-.012-4.063-.062a5.693,5.693,0,0,1-1.87-.352,3.107,3.107,0,0,1-1.153-.752,3.048,3.048,0,0,1-.753-1.154,5.708,5.708,0,0,1-.351-1.869c-.038-1.054-.051-1.379-.051-4.05s.013-3,.051-4.064A5.688,5.688,0,0,1,2.17,4.087a2.968,2.968,0,0,1,.753-1.154,2.971,2.971,0,0,1,1.153-.751A5.554,5.554,0,0,1,5.933,1.83C7,1.792,7.313,1.78,10,1.78l.038.025Zm0,3.075a5.152,5.152,0,1,0,5.152,5.152A5.152,5.152,0,0,0,10.034,4.882Zm0,8.5a3.345,3.345,0,1,1,3.345-3.345A3.344,3.344,0,0,1,10.034,13.379Zm6.561-8.7a1.2,1.2,0,1,1-1.2-1.2A1.2,1.2,0,0,1,16.595,4.679Z"/></svg>