<svg xmlns="http://www.w3.org/2000/svg" width="50.933" height="50.922" viewBox="0 0 50.933 50.922"><defs><style>.a{fill:#607d8b;}.b{fill:#cfd8dc;}.c{fill:#b0bec5;}</style></defs><g transform="translate(0 -0.055)"><g transform="translate(0 7.182)"><path class="a" d="M8.007,66.393a1.326,1.326,0,0,0-1.624-.51,1.216,1.216,0,0,0-.454.3,4.779,4.779,0,0,0-1.284,2.7L.006,108.019a1.1,1.1,0,0,0,1.1,1.135c.043,0,.086.005.129.005H9.808a1.171,1.171,0,0,0,1.225-.925l3.676-29.026a.9.9,0,0,0-.1-.541Z" transform="translate(0 -65.366)"/><path class="a" d="M394.073,65.552a4.882,4.882,0,0,0-1.75-3.135,1.351,1.351,0,0,0-1.1-.284,1.2,1.2,0,0,0-.895.623L384.1,75.4a.9.9,0,0,0-.093.509l3.676,29.07a1.171,1.171,0,0,0,1.225.926h8.577a1.146,1.146,0,0,0,1.231-1.033.892.892,0,0,0-.006-.109Z" transform="translate(-347.786 -62.111)"/></g><path class="b" d="M88.282,26.106a4.822,4.822,0,0,0-1.428-1.073l-4.317-2.145a17.005,17.005,0,0,0-5.461-1.1,1.018,1.018,0,0,0-.967.622,1.08,1.08,0,0,0,.192,1.157,4.479,4.479,0,0,1,.724,1.1L78.9,28.538l-9.792,3.679-9.792-3.679,1.875-3.873a4.484,4.484,0,0,1,.724-1.1A1.08,1.08,0,0,0,62.1,22.41a1.04,1.04,0,0,0-.967-.622,17,17,0,0,0-5.549,1.138l-4.259,2.107a5.073,5.073,0,0,0-1.785,1.509,1.082,1.082,0,0,0-.114,1.07l5.4,12.274V67.053a1.058,1.058,0,0,0,.563.942c.175.091,4.4,2.219,13.717,2.219s13.542-2.128,13.717-2.219a1.058,1.058,0,0,0,.563-.942V39.871l5.1-12.643A1.08,1.08,0,0,0,88.282,26.106Z" transform="translate(-43.671 -19.238)"/><path class="c" d="M235.946,162.722a1.225,1.225,0,0,1-1.225-1.225V118.612a1.225,1.225,0,1,1,2.451,0V161.5A1.225,1.225,0,0,1,235.946,162.722Z" transform="translate(-211.534 -111.747)"/><path class="a" d="M183.633,2.97A8.513,8.513,0,0,0,177.222.054h-8.087a8.513,8.513,0,0,0-6.411,2.916,1.225,1.225,0,0,0,1.1,2.017l.147-.017,8.2,11.714a1.225,1.225,0,0,0,2,0l8.2-11.714.147.017a1.225,1.225,0,0,0,1.1-2.017Z" transform="translate(-147.713 0)"/><g transform="translate(10.763 2.492)"><path class="c" d="M143.765,34.082l-8.577-12.253c-.444-.632-1.362-.576-2.139-.458a1.225,1.225,0,0,0-.706.368,7.486,7.486,0,0,0-1.287,1.865l-2.867,5.734a1.226,1.226,0,0,0,.676,1.7l13.478,4.9a1.21,1.21,0,0,0,.419.074,1.225,1.225,0,0,0,1-1.929Z" transform="translate(-128.06 -21.295)"/><path class="c" d="M261.194,29.321l-2.867-5.734a7.49,7.49,0,0,0-1.287-1.865,1.225,1.225,0,0,0-.706-.368c-.777-.118-1.693-.172-2.139.461l-8.577,12.253a1.225,1.225,0,0,0,1,1.929,1.21,1.21,0,0,0,.419-.074l13.478-4.9a1.225,1.225,0,0,0,.731-1.571,1.209,1.209,0,0,0-.055-.127Z" transform="translate(-231.918 -21.281)"/></g></g></svg>