<svg xmlns="http://www.w3.org/2000/svg" width="38.656" height="53.389" viewBox="0 0 38.656 53.389"><defs><style>.a{fill:#455a64;}.b{fill:#546e7a;}.c{fill:#1976d2;}.d{fill:#1565c0;}.e{fill:#42a5f5;}</style></defs><g transform="translate(-127.986)"><path class="a" d="M179.932,0H150.944c-.889,0-1.611.5-1.611,1.112V5.561c0,.614.721,1.112,1.611,1.112s1.611-.5,1.611-1.112h25.768c0,.614.721,1.112,1.61,1.112s1.611-.5,1.611-1.112V1.112C181.543.5,180.822,0,179.932,0Z" transform="translate(-18.124)"/><g transform="translate(137.651)"><rect class="b" width="3.221" height="6.674"/><rect class="b" width="3.221" height="6.674" transform="translate(16.105)"/></g><path class="c" d="M163.9,52.6c-.045-.613-.8-1.086-1.69-1.055l-.114.007a3.489,3.489,0,0,1-2.168-.556A6.6,6.6,0,0,1,156.977,46V43.778c0-.614-.721-1.112-1.611-1.112h-16.1c-.889,0-1.611.5-1.611,1.112V46a6.6,6.6,0,0,1-2.925,4.974,3.56,3.56,0,0,1-2.21.574,2.069,2.069,0,0,0-1.224.256,1.043,1.043,0,0,0-.567.792l-2.738,37.839c-.045.614.64,1.136,1.528,1.167h8.931c.864,0,1.574-.47,1.611-1.066l7.876-31.773h0l5.154,31.772c.036.6.747,1.066,1.611,1.066H165.03c.889,0,1.611-.5,1.613-1.111,0-.019,0-.038,0-.057Z" transform="translate(0 -38.217)"/><g transform="translate(130.724 4.449)"><path class="d" d="M154.658,42.667h-6.442c-.889,0-1.611.5-1.611,1.112v2.169l-.483,6.651c-.041.585.581,1.092,1.424,1.159.214.018.429.027.644.027a7.713,7.713,0,0,0,4.078-1.15,8.486,8.486,0,0,0,4-6.631V43.779C156.268,43.165,155.547,42.667,154.658,42.667Z" transform="translate(-146.12 -42.667)"/><path class="d" d="M308.329,46V43.778c0-.614-.721-1.112-1.611-1.112h-6.442c-.889,0-1.611.5-1.611,1.112V46a8.623,8.623,0,0,0,4.042,6.658,7.633,7.633,0,0,0,4.01,1.128c.226,0,.452-.01.676-.029.837-.072,1.453-.577,1.411-1.159Z" transform="translate(-275.634 -42.666)"/></g><path class="e" d="M246.944,54.861c-.889,0-1.611-.5-1.611-1.112a1.1,1.1,0,0,1,.757-.943c1.25-.541,1.656-4.709.866-8.925-.114-.612.512-1.172,1.4-1.25s1.7.354,1.81.965c.409,2.187,1.446,9.454-2.355,11.1A2.152,2.152,0,0,1,246.944,54.861Z" transform="translate(-99.629 -38.177)"/></g></svg>