<svg xmlns="http://www.w3.org/2000/svg" width="20.018" height="20.067" viewBox="0 0 20.018 20.067"><defs><style>.a{fill:#fff;opacity:0.51;}</style></defs><path class="a" d="M10.068,0A10.023,10.023,0,0,0,6.414,19.356a9.647,9.647,0,0,1,.034-2.876C6.631,15.7,7.624,11.5,7.624,11.5a3.629,3.629,0,0,1-.3-1.489c0-1.39.808-2.434,1.813-2.434a1.26,1.26,0,0,1,1.269,1.411,20.117,20.117,0,0,1-.829,3.338,1.454,1.454,0,0,0,1.484,1.811c1.779,0,3.151-1.877,3.151-4.588a3.956,3.956,0,0,0-4.188-4.071A4.338,4.338,0,0,0,5.5,9.824a3.908,3.908,0,0,0,.743,2.292.306.306,0,0,1,.071.288c-.075.314-.245,1-.279,1.14-.045.188-.144.227-.336.138-1.25-.577-2.034-2.406-2.034-3.885,0-3.157,2.3-6.064,6.622-6.064a5.886,5.886,0,0,1,6.181,5.789c0,3.457-2.18,6.239-5.212,6.239a2.707,2.707,0,0,1-2.306-1.153L8.325,16.99A10.935,10.935,0,0,1,7.073,19.62,10.024,10.024,0,1,0,10.041.022Z" transform="translate(-0.044)"/></svg>