<svg xmlns="http://www.w3.org/2000/svg" width="54.535" height="54.648" viewBox="0 0 54.535 54.648"><defs><style>.a{fill:#acb3ba;}.b{fill:#f2f2f2;}.c{fill:#cdd6e0;}.d{fill:#40596b;}.e{fill:#1976d2;}.f{fill:#63c1ff;}</style></defs><g transform="translate(55.069) rotate(90)"><path class="a" d="M17.428,12.267,15.15,9.989C15.036,6.913,2.848.534,2.848.534L0,3.382s6.379,12.188,9.341,12.3l2.278,2.278-.456.456,4.443,4.443L18.8,19.9l-1.936-1.936a.427.427,0,0,1,0-.683h0a.427.427,0,0,1,.683,0l1.936,1.936,2.962-3.19L18,11.583Z"/><circle class="b" cx="2.848" cy="2.848" r="2.848" transform="translate(10.48 11.242)"/><path class="c" d="M98.133,103.648a2.82,2.82,0,0,0,2.848,2.848v-5.7A2.82,2.82,0,0,0,98.133,103.648Z" transform="translate(-87.653 -89.558)"/><path class="d" d="M15.3,15.145l-4.9-5.012-.8.8,5.012,5.012a4.3,4.3,0,0,0,1.253,2.506c1.139,1.139,2.392,1.595,2.962,1.025s.114-1.823-1.025-2.962A3.716,3.716,0,0,0,15.3,15.145Z" transform="translate(-8.575 -8.574)"/><path class="e" d="M192.2,115.53c-.114-.114-.228-.114-.342-.228l-1.139-3.873a.851.851,0,0,0-1.139-.57,17.933,17.933,0,0,1-4.784,1.025.832.832,0,0,0-.8.683l-1.595,5.24a37.082,37.082,0,0,1,5.126,2.506Z" transform="translate(-162.921 -98.479)"/><path class="f" d="M230.4,160.937c5.468,2.848,14.011,8.2,18.681,15.606a46.307,46.307,0,0,0,6.265,7.86l.456.456a2.739,2.739,0,1,0,3.873-3.873h0a21.309,21.309,0,0,1-3.19-3.987c-2.962-4.67-10.935-16.062-21.415-20.732Z" transform="translate(-205.795 -139.102)"/><path class="e" d="M114.044,192.73l4.67-4.67c-1.595-3.076-2.506-5.126-2.506-5.126l-5.24,1.595a1.2,1.2,0,0,0-.683.8,17.933,17.933,0,0,1-1.025,4.784.851.851,0,0,0,.57,1.139l3.873,1.139Q114.044,192.559,114.044,192.73Z" transform="translate(-97.527 -162.921)"/><path class="f" d="M159.451,230.933l-4.67,4.67c0-.114-.114-.114-.114-.228,4.67,10.594,16.175,18.568,20.846,21.529a21.3,21.3,0,0,1,3.987,3.19h0a2.739,2.739,0,1,0,3.873-3.873l-.456-.456a46.308,46.308,0,0,0-7.86-6.265C167.653,244.944,162.3,236.4,159.451,230.933Z" transform="translate(-138.15 -205.794)"/><circle class="a" cx="1.025" cy="1.025" r="1.025" transform="translate(12.302 13.064)"/></g></svg>