<svg xmlns="http://www.w3.org/2000/svg" width="45.538" height="50.928" viewBox="0 0 45.538 50.928"><defs><style>.a{fill:#2196f3;}.b{fill:#1182dc;}.c{fill:#63c1ff;}.d{fill:#5c545f;}</style></defs><g transform="translate(-34.134)"><path class="a" d="M70.564,210.1l7.951-2.625a1.559,1.559,0,0,0,1.02-2.117l-6.6-14.428a5.247,5.247,0,0,0-4.955-3.2H45.822a5.247,5.247,0,0,0-4.955,3.2l-6.6,14.428a1.559,1.559,0,0,0,1.02,2.117l7.951,2.625Z" transform="translate(0 -168.098)"/><g transform="translate(34.667 19.635)"><path class="a" d="M353.035,205.358l-6.018-14.428a4.794,4.794,0,0,0-4.52-3.2h-2.218a4.794,4.794,0,0,1,4.52,3.2l6.018,14.428a1.6,1.6,0,0,1-.931,2.117l-7.253,2.625h2.218l7.253-2.625A1.6,1.6,0,0,0,353.035,205.358Z" transform="translate(-308.153 -187.733)"/><path class="a" d="M374.255,352.572l-.558-1.339-9.041,2.737a.723.723,0,1,0,.419,1.385l9.112-2.758A.715.715,0,0,0,374.255,352.572Z" transform="translate(-329.782 -335.927)"/><path class="a" d="M39.825,352.572q.033.014.069.025l9.035,2.735a.723.723,0,0,0,.419-1.385l-8.964-2.713Z" transform="translate(-39.825 -335.927)"/></g><path class="a" d="M173.669,7.422l-1.453-3.489A6.391,6.391,0,0,0,166.316,0h-4.26a6.391,6.391,0,0,0-5.9,3.933L154.7,7.422l.514.824h17.97Z" transform="translate(-107.283)"/><path class="b" d="M263.176,3.933A6.391,6.391,0,0,0,257.276,0h-2.218a6.391,6.391,0,0,1,5.9,3.933l1.453,3.489-.482.824h2.218l.482-.824Z" transform="translate(-197.656 0)"/><path class="c" d="M145.261,111.858l-3.572-31.6-1.026-.72a3.237,3.237,0,0,1-1.414-2.642V73.809h0a4.979,4.979,0,0,0,1.84-3.834,1.779,1.779,0,0,0-1.839-1.709H120.855a1.779,1.779,0,0,0-1.839,1.709,4.979,4.979,0,0,0,1.84,3.834h0v3.086a3.237,3.237,0,0,1-1.414,2.642l-1.026.72-3.572,31.6a.882.882,0,0,0,.915.946h28.588A.882.882,0,0,0,145.261,111.858Z" transform="translate(-73.149 -61.875)"/><g transform="translate(66.037 39.021)"><path class="a" d="M344.9,391.047a.723.723,0,0,1-.718-.648l-.5-4.794a.723.723,0,0,1,1.439-.151l.5,4.794a.723.723,0,0,1-.644.8A.731.731,0,0,1,344.9,391.047Z" transform="translate(-343.67 -384.806)"/></g><g transform="translate(45.817 39.021)"><path class="a" d="M148.211,391.047a.724.724,0,0,1-.72-.8l.5-4.793a.723.723,0,0,1,1.439.151l-.5,4.793A.724.724,0,0,1,148.211,391.047Z" transform="translate(-147.487 -384.808)"/></g><g transform="translate(48.836 22.141)"><circle class="a" cx="1.598" cy="1.598" r="1.598" transform="matrix(0.13, -0.992, 0.992, 0.13, 0, 3.299)"/><circle class="a" cx="1.598" cy="1.598" r="1.598" transform="matrix(0.967, -0.256, 0.256, 0.967, 11.437, 0.818)"/></g><path class="a" d="M116.854,470.14l-.175,1.443q.043,0,.087,0h29.908q.044,0,.087,0l-.175-1.443Z" transform="translate(-74.818 -423.13)"/><path class="a" d="M248.038,162.928a.723.723,0,0,0-.723.723v31.955h1.447V163.651A.723.723,0,0,0,248.038,162.928Z" transform="translate(-191.234 -144.678)"/><path class="d" d="M189.332,68.267a1.6,1.6,0,0,0-1.6,1.675,1.627,1.627,0,0,0,1.641,1.521,1.553,1.553,0,0,1,1.553,1.553v1.576a3.239,3.239,0,0,0,3.106,3.261,3.2,3.2,0,0,0,3.285-3.194V73.015a1.553,1.553,0,0,1,1.553-1.553,1.627,1.627,0,0,0,1.641-1.521,1.6,1.6,0,0,0-1.6-1.675Z" transform="translate(-137.222 -61.876)"/><g transform="translate(47.359 9.211)"><path class="b" d="M154.053,92.028a4.784,4.784,0,0,0,1.556,2.946h0v.983a7.171,7.171,0,0,0,1.356.647.723.723,0,1,0,.482-1.364,5.769,5.769,0,0,1-3.394-3.211Z" transform="translate(-154.053 -92.028)"/><path class="b" d="M317.024,95.24a.723.723,0,1,0,.482,1.364,7.176,7.176,0,0,0,1.356-.647v-.983h0a4.783,4.783,0,0,0,1.556-2.946,5.77,5.77,0,0,1-3.394,3.211Z" transform="translate(-301.33 -92.029)"/></g></g></svg>