<svg xmlns="http://www.w3.org/2000/svg" width="74.202" height="43.295" viewBox="0 0 74.202 43.295"><defs><style>.a{fill:#546e7a;}.b{fill:#63c1ff;}.c{fill:#fff;}.d{fill:#455a64;}</style></defs><g transform="translate(0 -106.633)"><path class="a" d="M72.656,298.7a1.546,1.546,0,0,0-1.546,1.546c0,2.1-6.99,4.44-20.1,4.638H1.546A1.546,1.546,0,0,0,0,306.427v3.092a4.638,4.638,0,0,0,4.638,4.638H51.014c5.438,0,23.188-.556,23.188-7.729v-6.184A1.546,1.546,0,0,0,72.656,298.7Z" transform="translate(0 -164.229)"/><path class="b" d="M64.106,129.884c-1.5-.4-3.061-.8-4.6-1.184a50.226,50.226,0,0,1-10.422-3.262C44.3,122.37,35.368,112.718,34.3,107.855a1.546,1.546,0,0,0-1.679-1.212L4.791,109.734A1.546,1.546,0,0,0,3.5,111.772a29.194,29.194,0,0,1,1.462,5.692,11.233,11.233,0,0,1-1.323,4.715A36.5,36.5,0,0,0,.416,138.921a4.74,4.74,0,0,0,4.638,4.823H51.491a1.546,1.546,0,0,0,1.3-.717c2.575-4.063,7.609-10.1,10.908-10.1a1.546,1.546,0,0,0,.4-3.039Z" transform="translate(-0.323)"/><path class="c" d="M7.729,0A7.729,7.729,0,1,1,0,7.729,7.729,7.729,0,0,1,7.729,0Z" transform="translate(9.275 119.01)"/><g transform="translate(27.827 114.381)"><path class="d" d="M332.213,262.2a1.546,1.546,0,0,1-1.382-2.238l1.546-3.092a1.547,1.547,0,0,1,2.767,1.382h0l-1.546,3.092A1.546,1.546,0,0,1,332.213,262.2Z" transform="translate(-310.572 -242.113)"/><path class="d" d="M278.884,231.768a1.546,1.546,0,0,1-1.286-2.4l3.092-4.638a1.546,1.546,0,1,1,2.572,1.716l-3.092,4.638A1.546,1.546,0,0,1,278.884,231.768Z" transform="translate(-264.973 -214.772)"/><path class="d" d="M236.2,198.212a1.546,1.546,0,0,1-.86-2.832l4.638-3.092a1.546,1.546,0,0,1,1.716,2.572l-4.638,3.092A1.544,1.544,0,0,1,236.2,198.212Z" transform="translate(-228.473 -187.4)"/><path class="d" d="M193.556,164.719a1.546,1.546,0,0,1-.374-3.045l6.184-1.546a1.546,1.546,0,0,1,.748,3l-6.184,1.546A1.555,1.555,0,0,1,193.556,164.719Z" transform="translate(-192.012 -160.09)"/><path class="d" d="M356.554,266.754a1.593,1.593,0,0,0-.414-.056c-5.9,0-12.3,9.612-13.52,11.538a1.546,1.546,0,0,0,1.323,2.374h.025c10.49-.161,22.993-1.629,22.993-7.729C366.961,270.164,363.3,268.63,356.554,266.754Z" transform="translate(-320.587 -251.248)"/></g></g></svg>