<svg xmlns="http://www.w3.org/2000/svg" width="42.455" height="60.668" viewBox="0 0 42.455 60.668"><defs><style>.a{fill:#2196f3;}.b{fill:#455a64;}</style></defs><g transform="translate(-127.987)"><path class="a" d="M170.386,13.6,166.9,3.635V1.264c0-.7-.792-1.264-1.769-1.264H133.3c-.977,0-1.769.566-1.769,1.264V3.635l-3.484,9.96a.936.936,0,0,0-.053.379l3.537,45.5c.053.67.829,1.194,1.769,1.193h12.381c.948,0,1.729-.534,1.769-1.211l1.769-29v-.073l1.769,29.07c.04.677.82,1.211,1.769,1.211h12.381c.939,0,1.716-.523,1.769-1.193l3.537-45.5A.933.933,0,0,0,170.386,13.6Z" transform="translate(0)"/><g transform="translate(138.796)"><path class="b" d="M193.736,7.857A1.861,1.861,0,0,1,192,5.893V1.964a1.75,1.75,0,1,1,3.473,0V5.893A1.861,1.861,0,0,1,193.736,7.857Z" transform="translate(-192)"/><path class="b" d="M300.4,7.857a1.861,1.861,0,0,1-1.736-1.964V1.964a1.75,1.75,0,1,1,3.473,0V5.893A1.861,1.861,0,0,1,300.4,7.857Z" transform="translate(-281.303)"/></g></g></svg>