<svg xmlns="http://www.w3.org/2000/svg" width="77.426" height="45.66" viewBox="0 0 77.426 45.66"><defs><style>.a{fill:#cfd8dc;}.b{fill:#c0cfd6;}.c{fill:#2196f3;}</style></defs><g transform="translate(7.479 -74.662)"><g transform="translate(-7.479 79.687)"><path class="a" d="M23.409,119.815c-8.755-.879-21.841-2.522-21.972-2.55a1.531,1.531,0,0,0-1.65,1.056c-.254.805-7.266,27.344-7.266,32.753A1.531,1.531,0,0,0-5.949,152.6c4.558,0,25.012,3.526,29.358,4.074.274.744,2-9.482,1.847-10.268-4.188-21.33-1.724-18.028-1.051-23.881a1.531,1.531,0,0,0-.808-2.715Z" transform="translate(7.479 -116.167)"/><path class="a" d="M27.234,1.068a1.675,1.675,0,0,0-1.8-1.056C25.292.031,11.032,1.7,1.508,2.55a1.571,1.571,0,0,0-1.5,1.668A1.5,1.5,0,0,0,.628,5.271c3.33,2.431,7.8,1.7,3.227,23.056-.17.785.792,10.49,1.03,9.884,3.73-.525,24.2-1.772,29.155-1.772a1.6,1.6,0,0,0,1.665-1.531C35.705,29.5,27.51,1.861,27.234,1.068Z" transform="matrix(0.998, -0.07, 0.07, 0.998, 39.141, 2.491)"/></g><path class="b" d="M183.611,135.326a1.3,1.3,0,0,0-.919-.271c-2.963.289-4.852.427-5.749.427s-2.855-.143-5.774-.427a1.244,1.244,0,0,0-.925.276c-4.538,3.657-5.271,12.974-2.166,28.677,1.363,3.883,4.787,3.84,8.865,4.393,4.078-.553,7.5-.51,8.864-4.393a1.6,1.6,0,0,0,.051-.186C188.913,148.289,188.18,138.968,183.611,135.326Z" transform="translate(-146.616 -54.785)"/><path class="c" d="M103.355,75.033a1.531,1.531,0,0,0-1.224-.355c-.2.031-20.4,3.046-28.854,3.046s-28.649-3.012-28.854-3.046a1.558,1.558,0,0,0-1.224.355,1.531,1.531,0,0,0-.533,1.16v6.122A1.531,1.531,0,0,0,44,83.846c.132.015,13.254,1.665,22.04,2.547,3.649.355,6.012.526,7.218.526s3.487-.168,7.187-.526c8.8-.851,21.957-2.528,22.089-2.547a1.531,1.531,0,0,0,1.35-1.531V76.193A1.531,1.531,0,0,0,103.355,75.033Z" transform="translate(-42.951 0)"/></g></svg>